<svg xmlns="http://www.w3.org/2000/svg" width="760" height="370" viewBox="0 0 760 370" role="img" aria-labelledby="title desc">
  <title id="title">供应链降本逻辑拆解横向抽象图</title>
  <desc id="desc">总降本目标从左到右拆分为四项费用，再继续展开驱动因子；两个蓝色节点通过虚线连接，表示同一种库存控制动作。</desc>
  <rect width="760" height="370" fill="#121119" />

  <defs>
    <filter id="soft-glow" x="-20%" y="-20%" width="140%" height="140%">
      <feGaussianBlur stdDeviation="2.4" result="blur" />
      <feMerge>
        <feMergeNode in="blur" />
        <feMergeNode in="SourceGraphic" />
      </feMerge>
    </filter>
  </defs>

  <g fill="none" stroke="#b091f3" stroke-linecap="round" stroke-linejoin="round" stroke-width="5">
    <path d="M121 206H170" />
    <path d="M170 90V306" />
    <path d="M170 90H220" />
    <path d="M170 170H220" />
    <path d="M170 250H220" />
    <path d="M170 306H220" />

    <path d="M315 90H370" />
    <path d="M370 60V112" />
    <path d="M370 60H420" />
    <path d="M370 112H420" />
    <path d="M522 60H588" />
    <path d="M588 42V78" />
    <path d="M588 42H640" />
    <path d="M588 78H640" />

    <path d="M315 170H370" />
    <path d="M370 154V196" />
    <path d="M370 154H420" />
    <path d="M370 196H420" />

    <path d="M315 250H370" />
    <path d="M370 238V286" />
    <path d="M370 238H420" />
    <path d="M370 286H420" />

    <path d="M522 112H558V286H522" stroke-dasharray="10 11" opacity=".88" />
  </g>

  <g filter="url(#soft-glow)" stroke="#f5f2ff" stroke-opacity=".72" stroke-width="3">
    <rect x="35" y="188" width="86" height="36" rx="5" ry="5" fill="#ff89c2" fill-opacity=".9" />

    <rect x="220" y="73" width="95" height="34" rx="5" ry="5" fill="#ff89c2" fill-opacity=".82" />
    <rect x="220" y="153" width="95" height="34" rx="5" ry="5" fill="#ff89c2" fill-opacity=".82" />
    <rect x="220" y="233" width="95" height="34" rx="5" ry="5" fill="#ff89c2" fill-opacity=".82" />
    <rect x="220" y="289" width="95" height="34" rx="5" ry="5" fill="#ff89c2" fill-opacity=".82" />

    <rect x="420" y="43" width="102" height="34" rx="5" ry="5" fill="#ff89c2" fill-opacity=".82" />
    <rect x="420" y="96" width="102" height="32" rx="5" ry="5" fill="#5797ff" fill-opacity=".88" />

    <rect x="420" y="138" width="102" height="32" rx="5" ry="5" fill="#ff89c2" fill-opacity=".82" />
    <rect x="420" y="180" width="102" height="32" rx="5" ry="5" fill="#ff89c2" fill-opacity=".82" />

    <rect x="420" y="222" width="102" height="32" rx="5" ry="5" fill="#ff89c2" fill-opacity=".82" />
    <rect x="420" y="270" width="102" height="32" rx="5" ry="5" fill="#5797ff" fill-opacity=".88" />

    <rect x="640" y="28" width="88" height="28" rx="5" ry="5" fill="#ff89c2" fill-opacity=".82" />
    <rect x="640" y="64" width="88" height="28" rx="5" ry="5" fill="#ff89c2" fill-opacity=".82" />
  </g>
</svg>
